<mxfile host="app.diagrams.net" modified="2022-11-14T01:47:37.399Z" agent="5.0 (Macintosh; Intel Mac OS X 10_15_7) AppleWebKit/537.36 (KHTML, like Gecko) Chrome/107.0.0.0 Safari/537.36" etag="W9BUYafidQ99hhktfdMv" version="20.5.1" type="github">
  <diagram id="NS4XqTtsTdRoNV1wzGCu" name="Page-1">
    <mxGraphModel dx="823" dy="443" grid="1" gridSize="10" guides="1" tooltips="1" connect="1" arrows="1" fold="1" page="1" pageScale="1" pageWidth="1169" pageHeight="827" math="0" shadow="0">
      <root>
        <mxCell id="0" />
        <mxCell id="1" parent="0" />
        <mxCell id="-N8eBQGiCGkA7inLvQMp-26" value="" style="rounded=0;whiteSpace=wrap;html=1;fontSize=12;fillColor=#f5f5f5;dashed=1;fontColor=#333333;strokeColor=#666666;" vertex="1" parent="1">
          <mxGeometry x="180" y="190" width="160" height="240" as="geometry" />
        </mxCell>
        <mxCell id="-N8eBQGiCGkA7inLvQMp-28" style="edgeStyle=orthogonalEdgeStyle;rounded=0;orthogonalLoop=1;jettySize=auto;html=1;exitX=1;exitY=0.5;exitDx=0;exitDy=0;entryX=0;entryY=0.5;entryDx=0;entryDy=0;fontSize=12;" edge="1" parent="1" source="tUPdtmlpMD2rpeBzsV2m-1" target="-N8eBQGiCGkA7inLvQMp-3">
          <mxGeometry relative="1" as="geometry" />
        </mxCell>
        <mxCell id="-N8eBQGiCGkA7inLvQMp-32" style="edgeStyle=orthogonalEdgeStyle;rounded=0;orthogonalLoop=1;jettySize=auto;html=1;exitX=0.25;exitY=1;exitDx=0;exitDy=0;entryX=0.25;entryY=0;entryDx=0;entryDy=0;fontSize=12;" edge="1" parent="1" source="tUPdtmlpMD2rpeBzsV2m-1" target="-N8eBQGiCGkA7inLvQMp-2">
          <mxGeometry relative="1" as="geometry" />
        </mxCell>
        <mxCell id="tUPdtmlpMD2rpeBzsV2m-1" value="&lt;b&gt;Frontend&lt;/b&gt;&lt;br&gt;ethers.js" style="rounded=0;whiteSpace=wrap;html=1;" parent="1" vertex="1">
          <mxGeometry x="200" y="220" width="120" height="60" as="geometry" />
        </mxCell>
        <mxCell id="-N8eBQGiCGkA7inLvQMp-33" style="edgeStyle=orthogonalEdgeStyle;rounded=0;orthogonalLoop=1;jettySize=auto;html=1;exitX=0.75;exitY=0;exitDx=0;exitDy=0;entryX=0.75;entryY=1;entryDx=0;entryDy=0;fontSize=12;" edge="1" parent="1" source="-N8eBQGiCGkA7inLvQMp-2" target="tUPdtmlpMD2rpeBzsV2m-1">
          <mxGeometry relative="1" as="geometry" />
        </mxCell>
        <mxCell id="-N8eBQGiCGkA7inLvQMp-2" value="&lt;b&gt;Backend&lt;/b&gt;" style="rounded=0;whiteSpace=wrap;html=1;" vertex="1" parent="1">
          <mxGeometry x="200" y="330" width="120" height="60" as="geometry" />
        </mxCell>
        <mxCell id="-N8eBQGiCGkA7inLvQMp-29" style="edgeStyle=orthogonalEdgeStyle;rounded=0;orthogonalLoop=1;jettySize=auto;html=1;exitX=1;exitY=0.5;exitDx=0;exitDy=0;entryX=0;entryY=0.5;entryDx=0;entryDy=0;fontSize=12;" edge="1" parent="1" source="-N8eBQGiCGkA7inLvQMp-3" target="-N8eBQGiCGkA7inLvQMp-8">
          <mxGeometry relative="1" as="geometry" />
        </mxCell>
        <mxCell id="-N8eBQGiCGkA7inLvQMp-3" value="&lt;b&gt;Wallet&lt;/b&gt;&lt;br&gt;MetaMask&lt;b&gt;&amp;nbsp;&lt;/b&gt;" style="rounded=0;whiteSpace=wrap;html=1;" vertex="1" parent="1">
          <mxGeometry x="390" y="220" width="120" height="60" as="geometry" />
        </mxCell>
        <mxCell id="-N8eBQGiCGkA7inLvQMp-16" value="" style="group;fillColor=#d5e8d4;strokeColor=#82b366;" vertex="1" connectable="0" parent="1">
          <mxGeometry x="610" y="225" width="230" height="65" as="geometry" />
        </mxCell>
        <mxCell id="-N8eBQGiCGkA7inLvQMp-8" value="" style="rounded=0;whiteSpace=wrap;html=1;fillColor=#d5e8d4;dashed=1;strokeColor=#82b366;" vertex="1" parent="-N8eBQGiCGkA7inLvQMp-16">
          <mxGeometry x="-25" y="-15" width="255" height="80" as="geometry" />
        </mxCell>
        <mxCell id="-N8eBQGiCGkA7inLvQMp-4" value="Block" style="verticalAlign=top;align=left;spacingTop=8;spacingLeft=2;spacingRight=12;shape=cube;size=10;direction=south;fontStyle=4;html=1;" vertex="1" parent="-N8eBQGiCGkA7inLvQMp-16">
          <mxGeometry width="50" height="50" as="geometry" />
        </mxCell>
        <mxCell id="-N8eBQGiCGkA7inLvQMp-11" value="" style="edgeStyle=orthogonalEdgeStyle;rounded=0;orthogonalLoop=1;jettySize=auto;html=1;" edge="1" parent="-N8eBQGiCGkA7inLvQMp-16">
          <mxGeometry relative="1" as="geometry">
            <mxPoint x="77" y="29.000000000000114" as="sourcePoint" />
            <mxPoint x="50" y="29.000000000000114" as="targetPoint" />
          </mxGeometry>
        </mxCell>
        <mxCell id="-N8eBQGiCGkA7inLvQMp-5" value="Block" style="verticalAlign=top;align=left;spacingTop=8;spacingLeft=2;spacingRight=12;shape=cube;size=10;direction=south;fontStyle=4;html=1;" vertex="1" parent="-N8eBQGiCGkA7inLvQMp-16">
          <mxGeometry x="77" width="50" height="50" as="geometry" />
        </mxCell>
        <mxCell id="-N8eBQGiCGkA7inLvQMp-10" style="edgeStyle=orthogonalEdgeStyle;rounded=0;orthogonalLoop=1;jettySize=auto;html=1;exitX=0;exitY=0;exitDx=20;exitDy=0;exitPerimeter=0;entryX=0.406;entryY=0.996;entryDx=0;entryDy=0;entryPerimeter=0;" edge="1" parent="-N8eBQGiCGkA7inLvQMp-16" source="-N8eBQGiCGkA7inLvQMp-4" target="-N8eBQGiCGkA7inLvQMp-5">
          <mxGeometry relative="1" as="geometry">
            <mxPoint x="70" y="20" as="targetPoint" />
          </mxGeometry>
        </mxCell>
        <mxCell id="-N8eBQGiCGkA7inLvQMp-6" value="Block" style="verticalAlign=top;align=left;spacingTop=8;spacingLeft=2;spacingRight=12;shape=cube;size=10;direction=south;fontStyle=4;html=1;" vertex="1" parent="-N8eBQGiCGkA7inLvQMp-16">
          <mxGeometry x="153" width="50" height="50" as="geometry" />
        </mxCell>
        <mxCell id="-N8eBQGiCGkA7inLvQMp-14" style="edgeStyle=orthogonalEdgeStyle;rounded=0;orthogonalLoop=1;jettySize=auto;html=1;exitX=0;exitY=0;exitDx=20;exitDy=0;exitPerimeter=0;entryX=0.406;entryY=0.996;entryDx=0;entryDy=0;entryPerimeter=0;" edge="1" parent="-N8eBQGiCGkA7inLvQMp-16">
          <mxGeometry relative="1" as="geometry">
            <mxPoint x="153.20000000000005" y="20.300000000000068" as="targetPoint" />
            <mxPoint x="126" y="20" as="sourcePoint" />
          </mxGeometry>
        </mxCell>
        <mxCell id="-N8eBQGiCGkA7inLvQMp-15" value="" style="edgeStyle=orthogonalEdgeStyle;rounded=0;orthogonalLoop=1;jettySize=auto;html=1;" edge="1" parent="-N8eBQGiCGkA7inLvQMp-16">
          <mxGeometry relative="1" as="geometry">
            <mxPoint x="153" y="29.000000000000114" as="sourcePoint" />
            <mxPoint x="126" y="29.000000000000114" as="targetPoint" />
          </mxGeometry>
        </mxCell>
        <mxCell id="-N8eBQGiCGkA7inLvQMp-21" style="edgeStyle=orthogonalEdgeStyle;rounded=0;orthogonalLoop=1;jettySize=auto;html=1;exitX=0.5;exitY=1;exitDx=0;exitDy=0;entryX=0.331;entryY=0.004;entryDx=0;entryDy=0;entryPerimeter=0;fontSize=12;" edge="1" parent="1" source="-N8eBQGiCGkA7inLvQMp-17" target="-N8eBQGiCGkA7inLvQMp-8">
          <mxGeometry relative="1" as="geometry" />
        </mxCell>
        <mxCell id="-N8eBQGiCGkA7inLvQMp-22" value="&lt;b&gt;Deploy&lt;/b&gt;" style="edgeLabel;html=1;align=center;verticalAlign=middle;resizable=0;points=[];fontSize=12;" vertex="1" connectable="0" parent="-N8eBQGiCGkA7inLvQMp-21">
          <mxGeometry x="-0.1422" relative="1" as="geometry">
            <mxPoint as="offset" />
          </mxGeometry>
        </mxCell>
        <mxCell id="-N8eBQGiCGkA7inLvQMp-17" value="&lt;b&gt;Smart Contract&lt;/b&gt;" style="rounded=1;whiteSpace=wrap;html=1;fillColor=#dae8fc;strokeColor=#6c8ebf;" vertex="1" parent="1">
          <mxGeometry x="620" y="110" width="100" height="50" as="geometry" />
        </mxCell>
        <mxCell id="-N8eBQGiCGkA7inLvQMp-23" style="edgeStyle=orthogonalEdgeStyle;rounded=0;orthogonalLoop=1;jettySize=auto;html=1;exitX=0.5;exitY=1;exitDx=0;exitDy=0;entryX=0.5;entryY=0;entryDx=0;entryDy=0;fontSize=12;" edge="1" parent="1" source="-N8eBQGiCGkA7inLvQMp-18" target="-N8eBQGiCGkA7inLvQMp-17">
          <mxGeometry relative="1" as="geometry" />
        </mxCell>
        <mxCell id="-N8eBQGiCGkA7inLvQMp-24" value="&lt;b&gt;Create&lt;/b&gt;" style="edgeLabel;html=1;align=center;verticalAlign=middle;resizable=0;points=[];fontSize=12;" vertex="1" connectable="0" parent="-N8eBQGiCGkA7inLvQMp-23">
          <mxGeometry x="-0.0231" y="2" relative="1" as="geometry">
            <mxPoint as="offset" />
          </mxGeometry>
        </mxCell>
        <mxCell id="-N8eBQGiCGkA7inLvQMp-18" value="&lt;b&gt;IDE&lt;/b&gt;&lt;br&gt;Remix / Hardhat / Truffle" style="rounded=0;whiteSpace=wrap;html=1;fillColor=none;" vertex="1" parent="1">
          <mxGeometry x="595" y="10" width="150" height="60" as="geometry" />
        </mxCell>
        <mxCell id="-N8eBQGiCGkA7inLvQMp-25" value="&lt;b&gt;Use&lt;/b&gt;" style="edgeStyle=orthogonalEdgeStyle;rounded=0;orthogonalLoop=1;jettySize=auto;html=1;exitX=0;exitY=0.5;exitDx=0;exitDy=0;entryX=1;entryY=0.5;entryDx=0;entryDy=0;fontSize=12;" edge="1" parent="1" source="-N8eBQGiCGkA7inLvQMp-20" target="-N8eBQGiCGkA7inLvQMp-17">
          <mxGeometry relative="1" as="geometry" />
        </mxCell>
        <mxCell id="-N8eBQGiCGkA7inLvQMp-20" value="&lt;b&gt;Solidity&lt;/b&gt;" style="rounded=0;whiteSpace=wrap;html=1;fontSize=12;fillColor=none;" vertex="1" parent="1">
          <mxGeometry x="780" y="108.13" width="90" height="53.75" as="geometry" />
        </mxCell>
        <mxCell id="-N8eBQGiCGkA7inLvQMp-27" value="&lt;b&gt;Web2.0&lt;/b&gt;" style="text;html=1;strokeColor=none;fillColor=none;align=center;verticalAlign=middle;whiteSpace=wrap;rounded=0;dashed=1;fontSize=12;" vertex="1" parent="1">
          <mxGeometry x="180" y="160" width="60" height="30" as="geometry" />
        </mxCell>
        <mxCell id="-N8eBQGiCGkA7inLvQMp-30" value="&lt;h1&gt;Dapp&lt;/h1&gt;&lt;p&gt;&lt;span style=&quot;color: rgb(34, 34, 34); background-color: initial;&quot;&gt;&lt;font style=&quot;font-size: 12px;&quot;&gt;Decentralized App.&lt;/font&gt;&lt;/span&gt;&lt;/p&gt;&lt;p&gt;&lt;span style=&quot;color: rgb(34, 34, 34); background-color: initial;&quot;&gt;&lt;font style=&quot;font-size: 12px;&quot;&gt;Web2.0 + BlockChain&lt;/font&gt;&lt;/span&gt;&lt;/p&gt;" style="text;html=1;strokeColor=none;fillColor=none;spacing=5;spacingTop=-20;whiteSpace=wrap;overflow=hidden;rounded=0;dashed=1;fontSize=12;" vertex="1" parent="1">
          <mxGeometry x="180" y="20" width="190" height="110" as="geometry" />
        </mxCell>
        <mxCell id="-N8eBQGiCGkA7inLvQMp-31" value="Ganache" style="text;html=1;strokeColor=none;fillColor=none;align=center;verticalAlign=middle;whiteSpace=wrap;rounded=0;dashed=1;fontSize=12;" vertex="1" parent="1">
          <mxGeometry x="585" y="290" width="60" height="30" as="geometry" />
        </mxCell>
        <mxCell id="-N8eBQGiCGkA7inLvQMp-34" value="&lt;h1&gt;&lt;font style=&quot;font-size: 18px;&quot;&gt;Seed Forum&lt;/font&gt;&lt;/h1&gt;&lt;h1&gt;&lt;strong style=&quot;color: rgb(23, 43, 77); font-family: -apple-system, &amp;quot;system-ui&amp;quot;, &amp;quot;Segoe UI&amp;quot;, Roboto, Oxygen, Ubuntu, &amp;quot;Fira Sans&amp;quot;, &amp;quot;Droid Sans&amp;quot;, &amp;quot;Helvetica Neue&amp;quot;, sans-serif; font-size: 14px; background-color: rgb(255, 255, 255);&quot;&gt;Implement&lt;/strong&gt;&lt;/h1&gt;&lt;ul&gt;&lt;li&gt;login: traditional info + Account Token&lt;/li&gt;&lt;li&gt;platform dispatch + User reword&lt;/li&gt;&lt;/ul&gt;&lt;div&gt;&lt;strong style=&quot;color: rgb(23, 43, 77); font-family: -apple-system, &amp;quot;system-ui&amp;quot;, &amp;quot;Segoe UI&amp;quot;, Roboto, Oxygen, Ubuntu, &amp;quot;Fira Sans&amp;quot;, &amp;quot;Droid Sans&amp;quot;, &amp;quot;Helvetica Neue&amp;quot;, sans-serif; font-size: 14px; background-color: rgb(255, 255, 255);&quot;&gt;Innovation&lt;/strong&gt;&lt;br&gt;&lt;/div&gt;&lt;div&gt;&lt;strong style=&quot;color: rgb(23, 43, 77); font-family: -apple-system, &amp;quot;system-ui&amp;quot;, &amp;quot;Segoe UI&amp;quot;, Roboto, Oxygen, Ubuntu, &amp;quot;Fira Sans&amp;quot;, &amp;quot;Droid Sans&amp;quot;, &amp;quot;Helvetica Neue&amp;quot;, sans-serif; background-color: rgb(255, 255, 255);&quot;&gt;&lt;span style=&quot;font-size: 14px; white-space: pre;&quot;&gt;	&lt;/span&gt;&lt;font style=&quot;font-size: 12px;&quot;&gt;Coin : PandaCoin&lt;/font&gt;&lt;/strong&gt;&lt;/div&gt;&lt;p&gt;&lt;/p&gt;" style="text;html=1;strokeColor=none;fillColor=none;spacing=5;spacingTop=-20;whiteSpace=wrap;overflow=hidden;rounded=0;dashed=1;fontSize=12;" vertex="1" parent="1">
          <mxGeometry x="610" y="360" width="280" height="200" as="geometry" />
        </mxCell>
      </root>
    </mxGraphModel>
  </diagram>
</mxfile>
